<svg width="132" height="18" viewBox="0 0 132 18" fill="none" xmlns="http://www.w3.org/2000/svg">
<path d="M6.296 17.168C5.176 17.168 4.168 16.976 3.272 16.592C2.376 16.192 1.672 15.632 1.16 14.912C0.648 14.192 0.392 13.352 0.392 12.392H3.32C3.384 13.112 3.664 13.704 4.16 14.168C4.672 14.632 5.384 14.864 6.296 14.864C7.24 14.864 7.976 14.64 8.504 14.192C9.032 13.728 9.296 13.136 9.296 12.416C9.296 11.856 9.128 11.4 8.792 11.048C8.472 10.696 8.064 10.424 7.568 10.232C7.088 10.04 6.416 9.832 5.552 9.608C4.464 9.32 3.576 9.032 2.888 8.744C2.216 8.44 1.64 7.976 1.16 7.352C0.68 6.728 0.44 5.896 0.44 4.856C0.44 3.896 0.68 3.056 1.16 2.336C1.64 1.616 2.312 1.064 3.176 0.68C4.04 0.295999 5.04 0.103999 6.176 0.103999C7.792 0.103999 9.112 0.511999 10.136 1.328C11.176 2.128 11.752 3.232 11.864 4.64H8.84C8.792 4.032 8.504 3.512 7.976 3.08C7.448 2.648 6.752 2.432 5.888 2.432C5.104 2.432 4.464 2.632 3.968 3.032C3.472 3.432 3.224 4.008 3.224 4.76C3.224 5.272 3.376 5.696 3.68 6.032C4 6.352 4.4 6.608 4.88 6.8C5.36 6.992 6.016 7.2 6.848 7.424C7.952 7.728 8.848 8.032 9.536 8.336C10.24 8.64 10.832 9.112 11.312 9.752C11.808 10.376 12.056 11.216 12.056 12.272C12.056 13.12 11.824 13.92 11.36 14.672C10.912 15.424 10.248 16.032 9.368 16.496C8.504 16.944 7.48 17.168 6.296 17.168ZM28.9884 17H26.2524L18.0204 4.544V17H15.2844V0.295999H18.0204L26.2524 12.728V0.295999H28.9884V17ZM42.6373 13.592H35.6533L34.4533 17H31.5973L37.5733 0.295999H40.7413L46.7173 17H43.8373L42.6373 13.592ZM41.8693 11.36L39.1573 3.608L36.4213 11.36H41.8693ZM60.9796 5.288C60.9796 6.136 60.7796 6.936 60.3796 7.688C59.9796 8.44 59.3396 9.056 58.4596 9.536C57.5796 10 56.4516 10.232 55.0756 10.232H52.0516V17H49.3156V0.319999H55.0756C56.3556 0.319999 57.4356 0.543999 58.3156 0.991999C59.2116 1.424 59.8756 2.016 60.3076 2.768C60.7556 3.52 60.9796 4.36 60.9796 5.288ZM55.0756 8C56.1156 8 56.8916 7.768 57.4036 7.304C57.9156 6.824 58.1716 6.152 58.1716 5.288C58.1716 3.464 57.1396 2.552 55.0756 2.552H52.0516V8H55.0756Z" fill="#DE9654"/>
<path d="M75.3194 17.168C74.1994 17.168 73.1914 16.976 72.2954 16.592C71.3994 16.192 70.6954 15.632 70.1834 14.912C69.6714 14.192 69.4154 13.352 69.4154 12.392H72.3434C72.4074 13.112 72.6874 13.704 73.1834 14.168C73.6954 14.632 74.4074 14.864 75.3194 14.864C76.2634 14.864 76.9994 14.64 77.5274 14.192C78.0554 13.728 78.3194 13.136 78.3194 12.416C78.3194 11.856 78.1514 11.4 77.8154 11.048C77.4954 10.696 77.0874 10.424 76.5914 10.232C76.1114 10.04 75.4394 9.832 74.5754 9.608C73.4874 9.32 72.5994 9.032 71.9114 8.744C71.2394 8.44 70.6634 7.976 70.1834 7.352C69.7034 6.728 69.4634 5.896 69.4634 4.856C69.4634 3.896 69.7034 3.056 70.1834 2.336C70.6634 1.616 71.3354 1.064 72.1994 0.68C73.0634 0.295999 74.0634 0.103999 75.1994 0.103999C76.8154 0.103999 78.1354 0.511999 79.1594 1.328C80.1994 2.128 80.7754 3.232 80.8874 4.64H77.8634C77.8154 4.032 77.5274 3.512 76.9994 3.08C76.4714 2.648 75.7754 2.432 74.9114 2.432C74.1274 2.432 73.4874 2.632 72.9914 3.032C72.4954 3.432 72.2474 4.008 72.2474 4.76C72.2474 5.272 72.3994 5.696 72.7034 6.032C73.0234 6.352 73.4234 6.608 73.9034 6.8C74.3834 6.992 75.0394 7.2 75.8714 7.424C76.9754 7.728 77.8714 8.032 78.5594 8.336C79.2634 8.64 79.8554 9.112 80.3354 9.752C80.8314 10.376 81.0794 11.216 81.0794 12.272C81.0794 13.12 80.8474 13.92 80.3834 14.672C79.9354 15.424 79.2714 16.032 78.3914 16.496C77.5274 16.944 76.5034 17.168 75.3194 17.168ZM96.6678 0.319999L91.1478 10.952V17H88.4118V10.952L82.8678 0.319999H85.9158L89.7798 8.504L93.6438 0.319999H96.6678ZM112.543 17H109.807L101.575 4.544V17H98.8391V0.295999H101.575L109.807 12.728V0.295999H112.543V17ZM115.224 8.624C115.224 6.992 115.6 5.528 116.352 4.232C117.12 2.936 118.152 1.928 119.448 1.208C120.76 0.471999 122.192 0.103999 123.744 0.103999C125.52 0.103999 127.096 0.543999 128.472 1.424C129.864 2.288 130.872 3.52 131.496 5.12H128.208C127.776 4.24 127.176 3.584 126.408 3.152C125.64 2.72 124.752 2.504 123.744 2.504C122.64 2.504 121.656 2.752 120.792 3.248C119.928 3.744 119.248 4.456 118.752 5.384C118.272 6.312 118.032 7.392 118.032 8.624C118.032 9.856 118.272 10.936 118.752 11.864C119.248 12.792 119.928 13.512 120.792 14.024C121.656 14.52 122.64 14.768 123.744 14.768C124.752 14.768 125.64 14.552 126.408 14.12C127.176 13.688 127.776 13.032 128.208 12.152H131.496C130.872 13.752 129.864 14.984 128.472 15.848C127.096 16.712 125.52 17.144 123.744 17.144C122.176 17.144 120.744 16.784 119.448 16.064C118.152 15.328 117.12 14.312 116.352 13.016C115.6 11.72 115.224 10.256 115.224 8.624Z" fill="black"/>
</svg>
