<svg width="553" height="410" viewBox="0 0 553 410" fill="none" xmlns="http://www.w3.org/2000/svg">
<g clip-path="url(#clip0_8_829)">
<path d="M553 360.308H0V360.583H553V360.308Z" fill="#EBEBEB"/>
<path d="M497.59 378.013H460.959V378.288H497.59V378.013Z" fill="#EBEBEB"/>
<path d="M366.329 381.006H356.718V381.281H366.329V381.006Z" fill="#EBEBEB"/>
<path d="M459.853 367.802H438.629V368.077H459.853V367.802Z" fill="#EBEBEB"/>
<path d="M105.789 369.65H58.0205V369.925H105.789V369.65Z" fill="#EBEBEB"/>
<path d="M122.645 369.65H115.644V369.925H122.645V369.65Z" fill="#EBEBEB"/>
<path d="M249.016 374.294H145.406V374.569H249.016V374.294Z" fill="#EBEBEB"/>
<path d="M262.133 311.233H48.5643C45.0804 311.233 42.249 308.416 42.249 304.95V6.28298C42.249 2.81689 45.0804 0 48.5643 0H262.133C265.617 0 268.448 2.81689 268.448 6.28298V304.95C268.448 308.416 265.617 311.233 262.133 311.233ZM48.5643 0.275087C45.2352 0.275087 42.5255 2.97094 42.5255 6.28298V304.95C42.5255 308.262 45.2352 310.958 48.5643 310.958H262.133C265.462 310.958 268.172 308.262 268.172 304.95V6.28298C268.172 2.97094 265.462 0.275087 262.133 0.275087H48.5643Z" fill="#EBEBEB"/>
<path d="M501.36 311.233H287.792C284.308 311.233 281.477 308.416 281.477 304.95V6.28298C281.477 2.81689 284.308 0 287.792 0H501.36C504.844 0 507.676 2.81689 507.676 6.28298V304.95C507.676 308.416 504.844 311.233 501.36 311.233ZM287.792 0.275087C284.463 0.275087 281.753 2.97094 281.753 6.28298V304.95C281.753 308.262 284.463 310.958 287.792 310.958H501.36C504.689 310.958 507.399 308.262 507.399 304.95V6.28298C507.399 2.97094 504.689 0.275087 501.36 0.275087H287.792Z" fill="#EBEBEB"/>
<path d="M457.663 188.786V52.9377L366.374 52.9377V188.786H457.663Z" fill="#E6E6E6"/>
<path d="M454.897 188.776V52.9268L363.608 52.9268V188.776H454.897Z" fill="#F5F5F5"/>
<path d="M443.163 64.6013H375.343V177.112H443.163V64.6013Z" fill="white"/>
<path d="M376.881 177.101V64.5903H375.344V177.101H376.881Z" fill="#E6E6E6"/>
<path d="M237.602 360.297H276.312V236.079H237.602V360.297Z" fill="#E6E6E6"/>
<path d="M244.946 360.308H237.591V342.681H252.655L244.946 360.308Z" fill="#F0F0F0"/>
<path d="M444.457 360.286H483.167V236.068H444.457V360.286Z" fill="#E6E6E6"/>
<path d="M237.602 357.711H450.872V236.079L237.602 236.079L237.602 357.711Z" fill="#F0F0F0"/>
<path d="M243.309 243.496V271.455H372.865V243.496H243.309Z" fill="#E6E6E6"/>
<path d="M377.799 243.496V271.455H445.176V243.496H377.799Z" fill="#E6E6E6"/>
<path d="M404.807 246.874H418.134C423.93 246.874 429.46 245.498 433.441 243.066H389.5C393.482 245.498 399.023 246.874 404.807 246.874Z" fill="#F0F0F0"/>
<path d="M269.631 246.874H345.138C350.933 246.874 356.463 245.498 360.445 243.066H254.324C258.306 245.498 263.847 246.874 269.631 246.874Z" fill="#F0F0F0"/>
<path d="M243.309 279.466V307.426H372.865V279.466H243.309Z" fill="#E6E6E6"/>
<path d="M377.799 279.466V307.426H445.176V279.466H377.799Z" fill="#E6E6E6"/>
<path d="M404.807 282.833H418.134C423.93 282.833 429.46 281.458 433.441 279.026H389.5C393.482 281.458 399.023 282.833 404.807 282.833Z" fill="#F0F0F0"/>
<path d="M269.631 282.833H345.138C350.933 282.833 356.463 281.458 360.445 279.026H254.324C258.306 281.458 263.847 282.833 269.631 282.833Z" fill="#F0F0F0"/>
<path d="M243.309 315.436V343.396H372.865V315.436H243.309Z" fill="#E6E6E6"/>
<path d="M377.799 315.436V343.396H445.176V315.436H377.799Z" fill="#E6E6E6"/>
<path d="M404.807 318.803H418.134C423.93 318.803 429.46 317.428 433.441 314.996H389.5C393.482 317.428 399.023 318.803 404.807 318.803Z" fill="#F0F0F0"/>
<path d="M269.643 318.803H345.15C350.945 318.803 356.475 317.428 360.457 314.996H254.336C258.318 317.428 263.859 318.803 269.643 318.803Z" fill="#F0F0F0"/>
<path d="M443.517 360.297H450.861V342.681H435.809L443.517 360.297Z" fill="#F0F0F0"/>
<path d="M463.669 213.973C463.669 213.973 462.552 226.594 419.495 226.594C376.438 226.594 375.321 213.973 375.321 213.973H463.669Z" fill="#FAFAFA"/>
<path d="M463.669 223.469C463.669 223.469 462.54 236.09 419.495 236.09C376.438 236.09 375.321 223.469 375.321 223.469H463.669Z" fill="#EBEBEB"/>
<path d="M162.129 360.297H206.391L193.274 247.05H162.129V360.297Z" fill="#E6E6E6"/>
<path d="M87.4297 360.308H185.864L196.249 227.75H97.815L87.4297 360.308Z" fill="#E0E0E0"/>
<path d="M80.3398 360.308H182.778L193.163 227.75H90.7362L80.3398 360.308Z" fill="#F5F5F5"/>
<path d="M173.1 349.855L181.848 238.192H100.414L91.665 349.855H173.1Z" fill="white"/>
<path d="M319.656 22.8213H68.8262V204.698H319.656V22.8213Z" fill="#EBEBEB"/>
<path d="M311.074 32.4382H77.4092V195.069H311.074V32.4382Z" fill="#FAFAFA"/>
<path d="M127.688 195.069H103.168L126.261 32.4382H150.781L127.688 195.069Z" fill="white"/>
<path d="M188.285 195.069H163.754L186.847 32.4382H211.378L188.285 195.069Z" fill="white"/>
<path d="M266.402 195.069H254.137L277.23 32.4382H289.496L266.402 195.069Z" fill="white"/>
<path d="M209.852 195.069H197.587L220.68 32.4382H232.946L209.852 195.069Z" fill="white"/>
<path d="M155.735 32.4382H144.178V195.069H155.735V32.4382Z" fill="#EBEBEB"/>
<path d="M155.736 195.069H158.312L158.312 32.4382H155.736L155.736 195.069Z" fill="#E0E0E0"/>
<path d="M319.656 204.698H321.503V22.8213H319.656V204.698Z" fill="#E0E0E0"/>
<path d="M276.5 410C394.933 410 490.942 404.423 490.942 397.544C490.942 390.665 394.933 385.088 276.5 385.088C158.067 385.088 62.0576 390.665 62.0576 397.544C62.0576 404.423 158.067 410 276.5 410Z" fill="#F5F5F5"/>
<path d="M328.018 365.711L342.042 357.656L350.602 374.701L338.89 381.446L328.018 365.711Z" fill="#FFC3BD"/>
<path opacity="0.2" d="M328.028 365.711L342.052 357.656L346.841 367.207L334.111 374.525L328.028 365.711Z" fill="#580E0E"/>
<path d="M333.061 310.738C342.993 287.851 359.35 261.255 352.648 236.706L308.01 229.686C308.01 229.686 298.775 284.55 300.611 307.052C302.513 330.445 330.274 371.983 330.274 371.983L346.255 362.652C346.255 362.652 339.31 327.155 333.061 310.749V310.738Z" fill="#ECC970"/>
<g opacity="0.4">
<path d="M333.061 310.738C342.993 287.851 359.35 261.255 352.648 236.706L308.01 229.686C308.01 229.686 298.775 284.55 300.611 307.052C302.513 330.445 330.274 371.983 330.274 371.983L346.255 362.652C346.255 362.652 339.31 327.155 333.061 310.749V310.738Z" fill="#580E0E"/>
</g>
<path d="M347.871 362.454L329.611 373.182L323.793 365.656L345.316 354.323L347.871 362.454Z" fill="#ECC970"/>
<path opacity="0.2" d="M336.324 303.508C341.688 291.922 347.893 279.587 351.399 267.175C340.858 268.958 331.922 277.485 336.324 303.508Z" fill="#580E0E"/>
<path d="M350.138 370.663C349.861 370.31 349.286 370.343 349.065 370.718C346.764 374.646 340.128 378.409 337.574 379.762C336.943 380.093 336.523 380.643 336.324 381.259C335.074 385.088 330.119 390.81 330.119 390.81C330.119 390.81 330.396 392.086 331.026 393.363C331.557 394.441 332.95 394.771 333.88 394.012L354.252 377.551C354.982 376.957 355.037 375.856 354.352 375.207C353.19 374.107 351.487 372.39 350.138 370.663Z" fill="#3C4D55"/>
<path d="M354.352 373.479L370.532 373.634L369.061 392.648L355.535 392.537L354.352 373.479Z" fill="#FFC3BD"/>
<path d="M370.477 389.721C370.521 389.28 370.09 388.939 369.67 389.093C365.257 390.7 357.824 389.467 355.026 388.917C354.341 388.785 353.655 388.939 353.069 389.302C349.485 391.492 343.137 392.835 343.137 392.835C343.137 392.835 342.484 393.913 342.042 395.244C341.644 396.444 342.539 397.687 343.811 397.687H368.763C369.659 397.676 370.378 396.939 370.333 396.048C370.267 394.474 370.223 391.998 370.466 389.743L370.477 389.721Z" fill="#3C4D55"/>
<path opacity="0.2" d="M354.352 373.479L370.543 373.634L369.714 384.285L355.015 384.153L354.352 373.479Z" fill="#580E0E"/>
<path d="M380.784 309.428C385.828 285.518 394.908 254.433 388.515 242.087L336.257 234.033C336.257 234.033 342.76 283.504 344.474 306.546C346.255 330.511 353.3 380.005 353.3 380.005L370.819 380.049C370.819 380.049 383.007 337.938 380.784 309.417V309.428Z" fill="#ECC970"/>
<path opacity="0.4" d="M380.784 309.428C385.828 285.518 394.908 254.433 388.515 242.087L336.257 234.033C336.257 234.033 342.76 283.504 344.474 306.546C346.255 330.511 353.3 380.005 353.3 380.005L370.819 380.049C370.819 380.049 383.007 337.938 380.784 309.417V309.428Z" fill="#580E0E"/>
<path d="M372.722 380.709H351.653L351.321 371.983L374.536 372.357L372.722 380.709Z" fill="#ECC970"/>
<path d="M350.049 158.516L348.711 159.583L347.472 160.552C346.643 161.179 345.813 161.773 344.984 162.378C343.325 163.578 341.611 164.7 339.885 165.811C336.424 168.001 332.862 170.081 329.102 171.929C325.364 173.811 321.448 175.505 317.279 176.903C313.12 178.333 308.652 179.423 303.73 179.896L302.823 179.984C300.445 180.215 298.178 179.489 296.431 178.157C292.77 175.362 290.525 171.929 289.042 168.804C288.279 167.231 287.704 165.657 287.273 164.117C286.83 162.576 286.454 161.08 286.211 159.594C285.968 158.109 285.802 156.645 285.68 155.204C285.57 153.762 285.559 152.332 285.559 150.924C285.57 149.515 285.669 148.107 285.791 146.709L286.045 144.619L286.41 142.418C286.93 139.304 289.894 137.191 293.035 137.719C295.037 138.049 296.63 139.381 297.371 141.108L297.824 142.187C298.001 142.594 298.2 143.221 298.388 143.738L298.963 145.389C299.339 146.489 299.76 147.567 300.158 148.635C300.976 150.758 301.85 152.794 302.801 154.621C303.719 156.458 304.781 158.076 305.776 159.253C306.761 160.475 307.778 161.025 308.243 161.124L300.943 159.385C303.575 158.802 306.462 157.746 309.415 156.469C310.886 155.831 312.368 155.094 313.85 154.324C315.343 153.575 316.836 152.75 318.318 151.903C321.282 150.186 324.269 148.36 327.188 146.423C328.659 145.466 330.108 144.464 331.557 143.474L333.703 141.978L335.683 140.569L336.136 140.25C341.323 136.575 348.512 137.774 352.206 142.935C355.767 147.898 354.75 154.742 350.038 158.527L350.049 158.516Z" fill="#FFC3BD"/>
<path d="M297.348 141.934L291.63 145.642C284.629 147.171 284.209 137.873 284.209 137.873L282.196 133.483C281.51 131.997 282.174 130.138 283.755 129.092L287.726 126.474C289.54 125.274 291.895 125.571 292.946 127.123L295.313 130.611C295.999 131.623 296.43 132.801 296.552 134.022L297.348 141.934Z" fill="#FFC3BD"/>
<path d="M349.673 135.409C338.724 134.759 316.217 148.811 316.217 148.811C313.629 157.019 318.141 172.589 324.733 176.429C324.733 176.429 341.489 169.266 349.375 162.312C358.908 153.894 371.815 136.729 349.673 135.42V135.409Z" fill="#3C4D55"/>
<path d="M350.691 135.42C364.095 136.08 381.692 138.963 395.075 142.979C403.425 145.488 408.623 151.694 404.885 168.925C397.298 203.883 397.917 232.437 391.436 244.431C391.436 244.431 315.465 249.096 305.312 231.667C307.369 188.511 328.162 155.622 337.441 142.022C340.405 137.675 345.426 135.155 350.702 135.42H350.691Z" fill="#3C4D55"/>
<path d="M354.993 140.206C356.951 138.809 358.577 140.052 359.793 137.675C360.435 135.937 360.468 134.011 359.749 131.777L381.692 124.031C380.144 131.381 378.927 137.191 381.77 140.635C381.869 146.313 368.697 151.485 357.57 149.383C347.771 147.534 352.173 142.209 354.993 140.195V140.206Z" fill="#FFC3BD"/>
<path opacity="0.2" d="M359.947 132.46L376.559 130.941C371.538 136.641 363.719 138.985 360.047 136.85C360.379 135.508 360.368 134.066 359.947 132.46Z" fill="#580E0E"/>
<path d="M358.344 111.773C357.47 103.312 365.754 92.6052 372.678 96.3024C379.601 99.9885 358.344 111.773 358.344 111.773Z" fill="#3C4D55"/>
<path d="M387.554 116.593C383.163 126.232 379.978 132.68 372.623 134.671C358.013 138.622 353.202 130.633 354.617 119.861C355.889 110.156 362.857 96.0272 374.05 95.8731C385.088 95.7191 391.945 106.965 387.554 116.593Z" fill="#FFC3BD"/>
<path d="M385.021 124.317C380.01 123.591 376.35 114.601 381.592 109.892C386.835 105.182 385.021 100.66 381.216 99.3282C377.411 97.9968 370.499 98.9541 368.928 95.5871C367.358 92.22 377.876 89.7772 384.003 93.6505C390.13 97.5237 389.799 95.1689 389.799 95.1689C389.799 95.1689 391.07 97.1496 388.648 97.5677C393.459 100.748 398.79 108.406 393.835 111.553C400.095 115.063 390.407 123.382 385.021 124.317Z" fill="#3C4D55"/>
<path d="M392.287 111.025C395.627 112.114 397.054 109.594 397.054 109.594C397.054 109.594 398.105 113.688 392.287 111.025Z" fill="#3C4D55"/>
<path d="M367.734 121.236C368.176 121.049 368.63 120.807 369.083 120.51C369.205 120.433 369.227 120.268 369.138 120.147C369.05 120.026 368.873 119.993 368.751 120.081C365.433 122.259 362.137 121.016 362.104 121.005C361.961 120.95 361.806 121.005 361.75 121.148C361.695 121.28 361.772 121.434 361.916 121.489C362.049 121.544 364.692 122.546 367.734 121.247V121.236Z" fill="#3C4D55"/>
<path opacity="0.2" d="M373.629 113.644C373.629 113.644 375.786 113.171 377.234 114.315C375.21 114.348 373.629 113.644 373.629 113.644Z" fill="#580E0E"/>
<path opacity="0.2" d="M373.529 114.513C373.529 114.513 375.553 114.491 376.538 115.91C374.746 115.514 373.529 114.513 373.529 114.513Z" fill="#580E0E"/>
<path d="M386.934 127.035C384.822 128.95 382.013 129.709 379.668 129.555C376.129 129.313 376.593 126.551 378.54 123.833C380.287 121.39 383.163 117.891 386.249 119.476C389.29 121.027 389.356 124.845 386.945 127.046L386.934 127.035Z" fill="#FFC3BD"/>
<path d="M371.582 113.325C371.273 114.128 370.598 114.612 370.067 114.414C369.536 114.205 369.359 113.391 369.669 112.588C369.979 111.784 370.653 111.3 371.184 111.498C371.715 111.696 371.892 112.521 371.582 113.325Z" fill="#3C4D55"/>
<path d="M362.226 109.716C361.916 110.519 361.242 111.003 360.711 110.805C360.18 110.596 360.003 109.782 360.313 108.978C360.622 108.175 361.297 107.691 361.828 107.889C362.359 108.098 362.536 108.912 362.226 109.716Z" fill="#3C4D55"/>
<path d="M365.146 111.025L362.79 118.067C362.79 118.067 360.346 118.914 358.101 116.516C360.445 112.895 365.146 111.025 365.146 111.025Z" fill="#ED847E"/>
<path d="M375.874 108.648C375.951 108.67 376.04 108.681 376.128 108.67C376.405 108.615 376.582 108.351 376.526 108.076C375.984 105.314 373.828 104.401 373.739 104.368C373.485 104.258 373.186 104.39 373.076 104.643C372.976 104.896 373.098 105.193 373.352 105.303C373.419 105.336 375.1 106.062 375.531 108.263C375.564 108.45 375.697 108.593 375.874 108.648Z" fill="#3C4D55"/>
<path d="M358.72 105.952C358.875 105.996 359.052 105.952 359.185 105.842C360.855 104.368 362.624 104.808 362.702 104.83C362.967 104.907 363.244 104.742 363.321 104.478C363.387 104.214 363.232 103.928 362.967 103.862C362.867 103.84 360.6 103.235 358.51 105.094C358.3 105.281 358.289 105.6 358.466 105.809C358.532 105.886 358.62 105.941 358.72 105.963V105.952Z" fill="#3C4D55"/>
<path d="M241.594 169.497L236.794 182.536C235.921 184.902 233.985 186.52 231.585 186.883L167.813 196.489C163.699 197.105 161.266 201.308 162.383 205.875L184.713 297.369C185.83 301.935 190.066 305.126 194.18 304.51L346.001 281.634C350.115 281.017 352.548 276.814 351.431 272.248L324.522 162.004C323.405 157.438 319.169 154.247 315.055 154.863L246.804 165.151C244.404 165.514 242.468 167.132 241.594 169.497Z" fill="#ECC970"/>
<path opacity="0.3" d="M241.594 169.497L236.794 182.536C235.921 184.902 233.985 186.52 231.585 186.883L167.813 196.489C163.699 197.105 161.266 201.308 162.383 205.875L184.713 297.369C185.83 301.935 190.066 305.126 194.18 304.51L346.001 281.634C350.115 281.017 352.548 276.814 351.431 272.248L324.522 162.004C323.405 157.438 319.169 154.247 315.055 154.863L246.804 165.151C244.404 165.514 242.468 167.132 241.594 169.497Z" fill="#580E0E"/>
<path d="M208.868 35.7173C210.384 35.7173 211.877 35.7943 213.348 35.9484C223.136 22.5022 239.029 13.7434 256.99 13.7434C279.807 13.7434 299.295 27.8719 307.136 47.7991C324.589 50.7591 337.872 65.8668 337.872 84.0776C337.872 104.412 321.304 120.884 300.876 120.884H208.879C185.244 120.884 166.077 101.815 166.077 78.3007C166.077 54.7863 185.244 35.7173 208.879 35.7173H208.868Z" fill="#ECC970"/>
<path d="M212.839 105.996V212.169H291.099V129.115L267.873 105.996H212.839Z" fill="#ECC970"/>
<path opacity="0.6" d="M212.839 105.996V212.169H291.099V129.115L267.873 105.996H212.839Z" fill="white"/>
<path opacity="0.4" d="M267.873 129.115V105.996L291.099 129.115H267.873Z" fill="#ECC970"/>
<path d="M215.361 304.11L209.816 304.943L209.983 306.042L215.528 305.209L215.361 304.11Z" fill="#ECC970"/>
<path d="M240.919 300.285L221.552 303.195L221.719 304.294L241.086 301.384L240.919 300.285Z" fill="#ECC970"/>
<path d="M269.51 179.929L262.288 191.922C260.972 194.101 258.771 195.608 256.382 195.972L192.61 205.589C188.496 206.205 185.311 210.089 185.487 214.248L189.193 297.699C189.381 301.858 192.865 304.73 196.979 304.114L348.799 281.237C352.914 280.621 356.099 276.737 355.922 272.578L351.454 172.028C351.266 167.869 347.782 164.997 343.668 165.613L275.416 175.901C273.016 176.264 270.815 177.772 269.51 179.951V179.929Z" fill="#ECC970"/>
<path d="M271.733 90.6025C271.379 90.6025 271.025 90.4705 270.759 90.2064C270.217 89.6782 270.217 88.809 270.759 88.2698C281.123 77.9596 281.123 61.1903 270.759 50.88C265.738 45.8845 259.069 43.1336 251.969 43.1336C244.868 43.1336 238.199 45.8845 233.178 50.88C228.156 55.8756 225.391 62.5107 225.391 69.5749C225.391 76.6391 228.156 83.2742 233.178 88.2698C233.72 88.798 233.72 89.6672 233.178 90.2064C232.647 90.7346 231.773 90.7346 231.231 90.2064C225.69 84.6937 222.648 77.3764 222.648 69.5859C222.648 61.7955 225.701 54.4672 231.231 48.9654C236.772 43.4527 244.127 40.4268 251.957 40.4268C259.788 40.4268 267.154 43.4637 272.684 48.9654C284.12 60.343 284.12 78.8398 272.684 90.2174C272.418 90.4815 272.065 90.6135 271.711 90.6135L271.733 90.6025Z" fill="white"/>
<path d="M263.726 98.778V68.3315C263.726 65.5916 261.492 63.3689 258.738 63.3689H245.201C242.447 63.3689 240.213 65.5916 240.213 68.3315V98.778H235.125L251.98 113.215L268.836 98.778H263.748H263.726Z" fill="white"/>
<path d="M400.151 174.416L399.476 175.923L398.846 177.299C398.415 178.212 397.961 179.092 397.519 179.973C396.623 181.744 395.65 183.461 394.676 185.188C392.675 188.61 390.551 191.978 388.162 195.235C386.968 196.863 385.751 198.492 384.446 200.087C383.119 201.672 381.758 203.234 380.298 204.775C377.401 207.856 374.116 210.793 370.245 213.445L369.482 213.962C369.095 214.227 368.663 214.447 368.243 214.612C363.642 216.361 359.815 216.669 356.143 216.878C352.494 217.043 349.054 216.801 345.692 216.46C342.34 216.064 339.067 215.525 335.848 214.81C332.608 214.072 329.533 213.269 326.281 212.136C323.251 211.08 321.658 207.767 322.731 204.753C323.516 202.541 325.507 201.099 327.719 200.912L327.962 200.89L336.932 200.131C339.918 199.867 342.86 199.581 345.714 199.196C347.141 199.009 348.545 198.822 349.906 198.591C351.266 198.349 352.593 198.073 353.854 197.798C356.331 197.237 358.676 196.401 359.793 195.686L357.791 196.852C359.804 195.069 361.795 192.814 363.742 190.371C364.715 189.15 365.655 187.84 366.573 186.52C367.513 185.199 368.42 183.824 369.316 182.438C371.074 179.632 372.822 176.749 374.459 173.778C375.299 172.303 376.085 170.796 376.892 169.31L379.137 164.997L379.403 164.48C382.333 158.857 389.279 156.667 394.931 159.572C400.361 162.367 402.595 168.892 400.162 174.383L400.151 174.416Z" fill="#FFC3BD"/>
<path d="M403.668 154.973C408.988 173.987 395.484 192.891 395.484 192.891C388.317 194.926 369.471 187.62 365.467 180.622C365.467 180.622 372.036 162.642 379.856 153.091C387.089 144.244 400.549 143.837 403.668 154.984V154.973Z" fill="#3C4D55"/>
<path d="M329.931 201.374L330.982 208.086C329.511 215.063 320.817 211.63 320.817 211.63L315.962 211.652C314.314 211.652 312.887 210.298 312.578 208.439L311.804 203.751C311.45 201.616 312.688 199.603 314.546 199.284L318.716 198.568C319.933 198.359 321.171 198.458 322.344 198.844L329.92 201.363L329.931 201.374Z" fill="#FFC3BD"/>
</g>
<defs>
<clipPath id="clip0_8_829">
<rect width="553" height="410" fill="white"/>
</clipPath>
</defs>
</svg>
